<?xml version="1.0" encoding="utf-8"?>
<!-- Generator: Adobe Illustrator 16.0.0, SVG Export Plug-In . SVG Version: 6.00 Build 0)  -->
<!DOCTYPE svg PUBLIC "-//W3C//DTD SVG 1.1//EN" "http://www.w3.org/Graphics/SVG/1.1/DTD/svg11.dtd">
<svg version="1.1" id="Layer_1" xmlns="http://www.w3.org/2000/svg" xmlns:xlink="http://www.w3.org/1999/xlink" x="0px" y="0px"
	 width="100px" height="19.033px" viewBox="0 0 100 19.033" enable-background="new 0 0 100 19.033" xml:space="preserve">
<g>
	<path fill="#4B4A4B" d="M1.907,3h1.224l3.168,11.286h0.036L9.557,3h1.512l3.222,11.286h0.036L17.495,3h1.224l-3.708,12.744h-1.458
		l-3.222-11.34h-0.036l-3.222,11.34H5.615L1.907,3z"/>
	<path fill="#4B4A4B" d="M19.727,9.372c0-0.972,0.162-1.866,0.486-2.682c0.324-0.816,0.774-1.521,1.35-2.115
		c0.576-0.594,1.269-1.059,2.079-1.395s1.701-0.504,2.673-0.504c0.972,0,1.863,0.168,2.673,0.504
		c0.81,0.336,1.503,0.801,2.079,1.395c0.576,0.594,1.026,1.299,1.35,2.115c0.324,0.816,0.486,1.71,0.486,2.682
		s-0.162,1.869-0.486,2.691c-0.324,0.822-0.774,1.53-1.35,2.124c-0.576,0.594-1.269,1.056-2.079,1.386
		c-0.81,0.33-1.701,0.495-2.673,0.495c-0.972,0-1.863-0.166-2.673-0.495c-0.81-0.33-1.503-0.792-2.079-1.386
		c-0.576-0.594-1.026-1.302-1.35-2.124C19.889,11.241,19.727,10.344,19.727,9.372z M20.915,9.372c0,0.792,0.126,1.53,0.378,2.214
		c0.252,0.684,0.612,1.278,1.08,1.782c0.468,0.504,1.035,0.9,1.701,1.188s1.413,0.432,2.241,0.432c0.828,0,1.575-0.144,2.241-0.432
		s1.233-0.684,1.701-1.188c0.468-0.504,0.828-1.098,1.08-1.782c0.252-0.684,0.378-1.422,0.378-2.214s-0.126-1.53-0.378-2.214
		s-0.612-1.278-1.08-1.782c-0.468-0.504-1.035-0.9-1.701-1.188s-1.413-0.432-2.241-0.432c-0.828,0-1.575,0.144-2.241,0.432
		s-1.233,0.684-1.701,1.188c-0.468,0.504-0.828,1.098-1.08,1.782S20.915,8.58,20.915,9.372z"/>
	<path fill="#4B4A4B" d="M35.567,3h3.348c0.167,0,0.396,0.006,0.684,0.018c0.288,0.012,0.6,0.048,0.936,0.108
		c0.336,0.061,0.678,0.156,1.026,0.288c0.348,0.132,0.66,0.324,0.936,0.576c0.276,0.252,0.504,0.57,0.684,0.954
		c0.18,0.384,0.27,0.852,0.27,1.404c0,0.612-0.105,1.116-0.315,1.512s-0.474,0.717-0.792,0.963s-0.669,0.429-1.053,0.549
		c-0.384,0.12-0.75,0.204-1.098,0.252l3.708,6.12h-1.35l-3.582-6.048h-2.214v6.048h-1.188V3z M36.755,8.616h2.52
		c0.624,0,1.131-0.078,1.521-0.234c0.39-0.156,0.693-0.348,0.909-0.576c0.216-0.228,0.363-0.474,0.441-0.738
		c0.078-0.264,0.117-0.504,0.117-0.72s-0.039-0.456-0.117-0.72c-0.079-0.264-0.225-0.51-0.441-0.738
		c-0.216-0.228-0.519-0.42-0.909-0.576c-0.39-0.156-0.897-0.234-1.521-0.234h-2.52V8.616z"/>
	<path fill="#4B4A4B" d="M46.079,3h3.942c1.104,0,2.04,0.135,2.809,0.405c0.768,0.27,1.406,0.615,1.916,1.035
		c0.51,0.42,0.912,0.885,1.207,1.395c0.293,0.51,0.51,0.999,0.648,1.467c0.137,0.468,0.225,0.891,0.26,1.269
		c0.037,0.378,0.055,0.645,0.055,0.801c0,0.156-0.018,0.423-0.055,0.801c-0.035,0.378-0.123,0.801-0.26,1.269
		c-0.139,0.468-0.355,0.957-0.648,1.467c-0.295,0.51-0.697,0.975-1.207,1.395s-1.148,0.765-1.916,1.035
		c-0.769,0.27-1.704,0.405-2.809,0.405h-3.942V3z M47.267,14.664h2.448c0.839,0,1.625-0.105,2.358-0.315
		c0.73-0.21,1.367-0.531,1.908-0.963c0.539-0.432,0.965-0.981,1.277-1.647s0.469-1.455,0.469-2.367c0-0.912-0.156-1.701-0.469-2.367
		c-0.312-0.666-0.738-1.215-1.277-1.647c-0.541-0.432-1.178-0.752-1.908-0.963C51.34,4.186,50.554,4.08,49.715,4.08h-2.448V14.664z"
		/>
	<path fill="#4B4A4B" d="M58.751,9.372c0-0.972,0.162-1.866,0.486-2.682c0.323-0.816,0.773-1.521,1.35-2.115
		c0.576-0.594,1.27-1.059,2.079-1.395s1.701-0.504,2.673-0.504s1.863,0.168,2.673,0.504c0.811,0.336,1.503,0.801,2.079,1.395
		c0.576,0.594,1.026,1.299,1.351,2.115c0.323,0.816,0.485,1.71,0.485,2.682s-0.162,1.869-0.485,2.691
		c-0.324,0.822-0.774,1.53-1.351,2.124c-0.576,0.594-1.269,1.056-2.079,1.386c-0.81,0.33-1.701,0.495-2.673,0.495
		s-1.863-0.166-2.673-0.495c-0.81-0.33-1.503-0.792-2.079-1.386c-0.576-0.594-1.026-1.302-1.35-2.124
		C58.913,11.241,58.751,10.344,58.751,9.372z M59.939,9.372c0,0.792,0.126,1.53,0.378,2.214c0.252,0.684,0.611,1.278,1.08,1.782
		c0.468,0.504,1.034,0.9,1.7,1.188s1.413,0.432,2.241,0.432s1.575-0.144,2.241-0.432s1.233-0.684,1.701-1.188
		s0.828-1.098,1.08-1.782c0.252-0.684,0.378-1.422,0.378-2.214s-0.126-1.53-0.378-2.214s-0.612-1.278-1.08-1.782
		c-0.468-0.504-1.035-0.9-1.701-1.188s-1.413-0.432-2.241-0.432S63.764,3.9,63.098,4.188s-1.232,0.684-1.7,1.188
		c-0.469,0.504-0.828,1.098-1.08,1.782S59.939,8.58,59.939,9.372z"/>
	<path fill="#4B4A4B" d="M74.591,3h1.188v5.616h0.108L82.061,3h1.638l-6.443,5.832l6.804,6.912h-1.71l-6.462-6.588h-0.108v6.588
		h-1.188V3z"/>
	<path fill="#4B4A4B" d="M84.761,9.372c0-0.972,0.162-1.866,0.486-2.682c0.323-0.816,0.773-1.521,1.35-2.115
		c0.576-0.594,1.27-1.059,2.079-1.395s1.701-0.504,2.673-0.504s1.863,0.168,2.673,0.504c0.811,0.336,1.503,0.801,2.079,1.395
		c0.576,0.594,1.026,1.299,1.351,2.115c0.323,0.816,0.485,1.71,0.485,2.682s-0.162,1.869-0.485,2.691
		c-0.324,0.822-0.774,1.53-1.351,2.124c-0.576,0.594-1.269,1.056-2.079,1.386c-0.81,0.33-1.701,0.495-2.673,0.495
		s-1.863-0.166-2.673-0.495c-0.81-0.33-1.503-0.792-2.079-1.386c-0.576-0.594-1.026-1.302-1.35-2.124
		C84.923,11.241,84.761,10.344,84.761,9.372z M85.949,9.372c0,0.792,0.126,1.53,0.378,2.214c0.252,0.684,0.611,1.278,1.08,1.782
		c0.468,0.504,1.034,0.9,1.7,1.188s1.413,0.432,2.241,0.432s1.575-0.144,2.241-0.432s1.233-0.684,1.701-1.188
		s0.828-1.098,1.08-1.782c0.252-0.684,0.378-1.422,0.378-2.214s-0.126-1.53-0.378-2.214s-0.612-1.278-1.08-1.782
		c-0.468-0.504-1.035-0.9-1.701-1.188s-1.413-0.432-2.241-0.432S89.773,3.9,89.107,4.188s-1.232,0.684-1.7,1.188
		c-0.469,0.504-0.828,1.098-1.08,1.782S85.949,8.58,85.949,9.372z"/>
</g>
</svg>
